<?xml version="1.0" encoding="utf-8" standalone="no"?>
<!DOCTYPE svg PUBLIC "-//W3C//DTD SVG 1.1//EN"
  "http://www.w3.org/Graphics/SVG/1.1/DTD/svg11.dtd">
<svg xmlns:xlink="http://www.w3.org/1999/xlink" width="684pt" height="247.248pt" viewBox="0 0 684 247.248" xmlns="http://www.w3.org/2000/svg" version="1.1">
 <metadata>
  <rdf:RDF xmlns:dc="http://purl.org/dc/elements/1.1/" xmlns:cc="http://creativecommons.org/ns#" xmlns:rdf="http://www.w3.org/1999/02/22-rdf-syntax-ns#">
   <cc:Work>
    <dc:type rdf:resource="http://purl.org/dc/dcmitype/StillImage"/>
    <dc:date>2026-08-02T11:41:27.018389</dc:date>
    <dc:format>image/svg+xml</dc:format>
    <dc:creator>
     <cc:Agent>
      <dc:title>Matplotlib v3.7.3, https://matplotlib.org/</dc:title>
     </cc:Agent>
    </dc:creator>
   </cc:Work>
  </rdf:RDF>
 </metadata>
 <defs>
  <style type="text/css">*{stroke-linejoin: round; stroke-linecap: butt}</style>
 </defs>
 <g id="figure_1">
  <g id="patch_1">
   <path d="M 0 247.248 
L 684 247.248 
L 684 0 
L 0 0 
z
" style="fill: #ffffff"/>
  </g>
  <g id="axes_1">
   <g id="patch_2">
    <path d="M 21.708 116.4168 
L 107.082 116.4168 
Q 108.756 116.4168 108.756 114.7536 
L 108.756 68.7384 
Q 108.756 67.0752 107.082 67.0752 
L 21.708 67.0752 
Q 20.034 67.0752 20.034 68.7384 
L 20.034 114.7536 
Q 20.034 116.4168 21.708 116.4168 
z
" clip-path="url(#p6798988283)" style="fill: #f5f7fa; stroke: #59a14f; stroke-width: 1.3; stroke-linejoin: miter"/>
   </g>
   <g id="patch_3">
    <path d="M 127.728 116.4168 
L 213.102 116.4168 
Q 214.776 116.4168 214.776 114.7536 
L 214.776 68.7384 
Q 214.776 67.0752 213.102 67.0752 
L 127.728 67.0752 
Q 126.054 67.0752 126.054 68.7384 
L 126.054 114.7536 
Q 126.054 116.4168 127.728 116.4168 
z
" clip-path="url(#p6798988283)" style="fill: #f5f7fa; stroke: #59a14f; stroke-width: 1.3; stroke-linejoin: miter"/>
   </g>
   <g id="patch_4">
    <path d="M 233.748 116.4168 
L 319.122 116.4168 
Q 320.796 116.4168 320.796 114.7536 
L 320.796 68.7384 
Q 320.796 67.0752 319.122 67.0752 
L 233.748 67.0752 
Q 232.074 67.0752 232.074 68.7384 
L 232.074 114.7536 
Q 232.074 116.4168 233.748 116.4168 
z
" clip-path="url(#p6798988283)" style="fill: #f5f7fa; stroke: #59a14f; stroke-width: 1.3; stroke-linejoin: miter"/>
   </g>
   <g id="patch_5">
    <path d="M 339.768 116.4168 
L 425.142 116.4168 
Q 426.816 116.4168 426.816 114.7536 
L 426.816 68.7384 
Q 426.816 67.0752 425.142 67.0752 
L 339.768 67.0752 
Q 338.094 67.0752 338.094 68.7384 
L 338.094 114.7536 
Q 338.094 116.4168 339.768 116.4168 
z
" clip-path="url(#p6798988283)" style="fill: #f5f7fa; stroke: #4c78a8; stroke-width: 1.3; stroke-linejoin: miter"/>
   </g>
   <g id="patch_6">
    <path d="M 445.788 116.4168 
L 531.162 116.4168 
Q 532.836 116.4168 532.836 114.7536 
L 532.836 68.7384 
Q 532.836 67.0752 531.162 67.0752 
L 445.788 67.0752 
Q 444.114 67.0752 444.114 68.7384 
L 444.114 114.7536 
Q 444.114 116.4168 445.788 116.4168 
z
" clip-path="url(#p6798988283)" style="fill: #f5f7fa; stroke: #4c78a8; stroke-width: 1.3; stroke-linejoin: miter"/>
   </g>
   <g id="patch_7">
    <path d="M 551.808 116.4168 
L 637.182 116.4168 
Q 638.856 116.4168 638.856 114.7536 
L 638.856 68.7384 
Q 638.856 67.0752 637.182 67.0752 
L 551.808 67.0752 
Q 550.134 67.0752 550.134 68.7384 
L 550.134 114.7536 
Q 550.134 116.4168 551.808 116.4168 
z
" clip-path="url(#p6798988283)" style="fill: #f5f7fa; stroke: #f28e2b; stroke-width: 1.3; stroke-linejoin: miter"/>
   </g>
   <g id="patch_8">
    <path d="M 109.63782 92.0232 
Q 117.404456 92.0232 123.829451 92.0232 
" clip-path="url(#p6798988283)" style="fill: none; stroke: #263238; stroke-width: 1.2; stroke-linecap: round"/>
    <path d="M 119.029451 89.6232 
L 123.829451 92.0232 
L 119.029451 94.4232 
z
" clip-path="url(#p6798988283)" style="fill: #263238; stroke: #263238; stroke-width: 1.2; stroke-linecap: round"/>
   </g>
   <g id="patch_9">
    <path d="M 215.65782 92.0232 
Q 223.424456 92.0232 229.849451 92.0232 
" clip-path="url(#p6798988283)" style="fill: none; stroke: #263238; stroke-width: 1.2; stroke-linecap: round"/>
    <path d="M 225.049451 89.6232 
L 229.849451 92.0232 
L 225.049451 94.4232 
z
" clip-path="url(#p6798988283)" style="fill: #263238; stroke: #263238; stroke-width: 1.2; stroke-linecap: round"/>
   </g>
   <g id="patch_10">
    <path d="M 321.67782 92.0232 
Q 329.444456 92.0232 335.869451 92.0232 
" clip-path="url(#p6798988283)" style="fill: none; stroke: #263238; stroke-width: 1.2; stroke-linecap: round"/>
    <path d="M 331.069451 89.6232 
L 335.869451 92.0232 
L 331.069451 94.4232 
z
" clip-path="url(#p6798988283)" style="fill: #263238; stroke: #263238; stroke-width: 1.2; stroke-linecap: round"/>
   </g>
   <g id="patch_11">
    <path d="M 427.69782 92.0232 
Q 435.464456 92.0232 441.889451 92.0232 
" clip-path="url(#p6798988283)" style="fill: none; stroke: #263238; stroke-width: 1.2; stroke-linecap: round"/>
    <path d="M 437.089451 89.6232 
L 441.889451 92.0232 
L 437.089451 94.4232 
z
" clip-path="url(#p6798988283)" style="fill: #263238; stroke: #263238; stroke-width: 1.2; stroke-linecap: round"/>
   </g>
   <g id="patch_12">
    <path d="M 533.71782 92.0232 
Q 541.484456 92.0232 547.909451 92.0232 
" clip-path="url(#p6798988283)" style="fill: none; stroke: #263238; stroke-width: 1.2; stroke-linecap: round"/>
    <path d="M 543.109451 89.6232 
L 547.909451 92.0232 
L 543.109451 94.4232 
z
" clip-path="url(#p6798988283)" style="fill: #263238; stroke: #263238; stroke-width: 1.2; stroke-linecap: round"/>
   </g>
   <g id="patch_13">
    <path d="M 256.068 216.2088 
L 427.932 216.2088 
Q 429.606 216.2088 429.606 214.5456 
L 429.606 171.3024 
Q 429.606 169.6392 427.932 169.6392 
L 256.068 169.6392 
Q 254.394 169.6392 254.394 171.3024 
L 254.394 214.5456 
Q 254.394 216.2088 256.068 216.2088 
z
" clip-path="url(#p6798988283)" style="fill: #f5f7fa; stroke: #8f63a8; stroke-width: 1.3; stroke-linejoin: miter"/>
   </g>
   <g id="patch_14">
    <path d="M 486.526342 116.413924 
Q 447.180721 142.47511 408.953627 167.795421 
" clip-path="url(#p6798988283)" style="fill: none; stroke: #8f63a8; stroke-width: 1.2; stroke-linecap: round"/>
    <path d="M 414.280711 167.145672 
L 408.953627 167.795421 
L 411.630078 163.143904 
z
" clip-path="url(#p6798988283)" style="fill: #8f63a8; stroke: #8f63a8; stroke-width: 1.2; stroke-linecap: round"/>
   </g>
   <g id="text_1">
    <!-- Embodied -->
    <g style="fill: #263238" transform="translate(41.825391 89.190422) scale(0.09 -0.09)">
     <defs>
      <path id="DejaVuSans-45" d="M 628 4666 
L 3578 4666 
L 3578 4134 
L 1259 4134 
L 1259 2753 
L 3481 2753 
L 3481 2222 
L 1259 2222 
L 1259 531 
L 3634 531 
L 3634 0 
L 628 0 
L 628 4666 
z
" transform="scale(0.015625)"/>
      <path id="DejaVuSans-6d" d="M 3328 2828 
Q 3544 3216 3844 3400 
Q 4144 3584 4550 3584 
Q 5097 3584 5394 3201 
Q 5691 2819 5691 2113 
L 5691 0 
L 5113 0 
L 5113 2094 
Q 5113 2597 4934 2840 
Q 4756 3084 4391 3084 
Q 3944 3084 3684 2787 
Q 3425 2491 3425 1978 
L 3425 0 
L 2847 0 
L 2847 2094 
Q 2847 2600 2669 2842 
Q 2491 3084 2119 3084 
Q 1678 3084 1418 2786 
Q 1159 2488 1159 1978 
L 1159 0 
L 581 0 
L 581 3500 
L 1159 3500 
L 1159 2956 
Q 1356 3278 1631 3431 
Q 1906 3584 2284 3584 
Q 2666 3584 2933 3390 
Q 3200 3197 3328 2828 
z
" transform="scale(0.015625)"/>
      <path id="DejaVuSans-62" d="M 3116 1747 
Q 3116 2381 2855 2742 
Q 2594 3103 2138 3103 
Q 1681 3103 1420 2742 
Q 1159 2381 1159 1747 
Q 1159 1113 1420 752 
Q 1681 391 2138 391 
Q 2594 391 2855 752 
Q 3116 1113 3116 1747 
z
M 1159 2969 
Q 1341 3281 1617 3432 
Q 1894 3584 2278 3584 
Q 2916 3584 3314 3078 
Q 3713 2572 3713 1747 
Q 3713 922 3314 415 
Q 2916 -91 2278 -91 
Q 1894 -91 1617 61 
Q 1341 213 1159 525 
L 1159 0 
L 581 0 
L 581 4863 
L 1159 4863 
L 1159 2969 
z
" transform="scale(0.015625)"/>
      <path id="DejaVuSans-6f" d="M 1959 3097 
Q 1497 3097 1228 2736 
Q 959 2375 959 1747 
Q 959 1119 1226 758 
Q 1494 397 1959 397 
Q 2419 397 2687 759 
Q 2956 1122 2956 1747 
Q 2956 2369 2687 2733 
Q 2419 3097 1959 3097 
z
M 1959 3584 
Q 2709 3584 3137 3096 
Q 3566 2609 3566 1747 
Q 3566 888 3137 398 
Q 2709 -91 1959 -91 
Q 1206 -91 779 398 
Q 353 888 353 1747 
Q 353 2609 779 3096 
Q 1206 3584 1959 3584 
z
" transform="scale(0.015625)"/>
      <path id="DejaVuSans-64" d="M 2906 2969 
L 2906 4863 
L 3481 4863 
L 3481 0 
L 2906 0 
L 2906 525 
Q 2725 213 2448 61 
Q 2172 -91 1784 -91 
Q 1150 -91 751 415 
Q 353 922 353 1747 
Q 353 2572 751 3078 
Q 1150 3584 1784 3584 
Q 2172 3584 2448 3432 
Q 2725 3281 2906 2969 
z
M 947 1747 
Q 947 1113 1208 752 
Q 1469 391 1925 391 
Q 2381 391 2643 752 
Q 2906 1113 2906 1747 
Q 2906 2381 2643 2742 
Q 2381 3103 1925 3103 
Q 1469 3103 1208 2742 
Q 947 2381 947 1747 
z
" transform="scale(0.015625)"/>
      <path id="DejaVuSans-69" d="M 603 3500 
L 1178 3500 
L 1178 0 
L 603 0 
L 603 3500 
z
M 603 4863 
L 1178 4863 
L 1178 4134 
L 603 4134 
L 603 4863 
z
" transform="scale(0.015625)"/>
      <path id="DejaVuSans-65" d="M 3597 1894 
L 3597 1613 
L 953 1613 
Q 991 1019 1311 708 
Q 1631 397 2203 397 
Q 2534 397 2845 478 
Q 3156 559 3463 722 
L 3463 178 
Q 3153 47 2828 -22 
Q 2503 -91 2169 -91 
Q 1331 -91 842 396 
Q 353 884 353 1716 
Q 353 2575 817 3079 
Q 1281 3584 2069 3584 
Q 2775 3584 3186 3129 
Q 3597 2675 3597 1894 
z
M 3022 2063 
Q 3016 2534 2758 2815 
Q 2500 3097 2075 3097 
Q 1594 3097 1305 2825 
Q 1016 2553 972 2059 
L 3022 2063 
z
" transform="scale(0.015625)"/>
     </defs>
     <use xlink:href="#DejaVuSans-45"/>
     <use xlink:href="#DejaVuSans-6d" x="63.183594"/>
     <use xlink:href="#DejaVuSans-62" x="160.595703"/>
     <use xlink:href="#DejaVuSans-6f" x="224.072266"/>
     <use xlink:href="#DejaVuSans-64" x="285.253906"/>
     <use xlink:href="#DejaVuSans-69" x="348.730469"/>
     <use xlink:href="#DejaVuSans-65" x="376.513672"/>
     <use xlink:href="#DejaVuSans-64" x="438.037109"/>
    </g>
    <!-- coupling -->
    <g style="fill: #263238" transform="translate(45.249609 99.268453) scale(0.09 -0.09)">
     <defs>
      <path id="DejaVuSans-63" d="M 3122 3366 
L 3122 2828 
Q 2878 2963 2633 3030 
Q 2388 3097 2138 3097 
Q 1578 3097 1268 2742 
Q 959 2388 959 1747 
Q 959 1106 1268 751 
Q 1578 397 2138 397 
Q 2388 397 2633 464 
Q 2878 531 3122 666 
L 3122 134 
Q 2881 22 2623 -34 
Q 2366 -91 2075 -91 
Q 1284 -91 818 406 
Q 353 903 353 1747 
Q 353 2603 823 3093 
Q 1294 3584 2113 3584 
Q 2378 3584 2631 3529 
Q 2884 3475 3122 3366 
z
" transform="scale(0.015625)"/>
      <path id="DejaVuSans-75" d="M 544 1381 
L 544 3500 
L 1119 3500 
L 1119 1403 
Q 1119 906 1312 657 
Q 1506 409 1894 409 
Q 2359 409 2629 706 
Q 2900 1003 2900 1516 
L 2900 3500 
L 3475 3500 
L 3475 0 
L 2900 0 
L 2900 538 
Q 2691 219 2414 64 
Q 2138 -91 1772 -91 
Q 1169 -91 856 284 
Q 544 659 544 1381 
z
M 1991 3584 
L 1991 3584 
z
" transform="scale(0.015625)"/>
      <path id="DejaVuSans-70" d="M 1159 525 
L 1159 -1331 
L 581 -1331 
L 581 3500 
L 1159 3500 
L 1159 2969 
Q 1341 3281 1617 3432 
Q 1894 3584 2278 3584 
Q 2916 3584 3314 3078 
Q 3713 2572 3713 1747 
Q 3713 922 3314 415 
Q 2916 -91 2278 -91 
Q 1894 -91 1617 61 
Q 1341 213 1159 525 
z
M 3116 1747 
Q 3116 2381 2855 2742 
Q 2594 3103 2138 3103 
Q 1681 3103 1420 2742 
Q 1159 2381 1159 1747 
Q 1159 1113 1420 752 
Q 1681 391 2138 391 
Q 2594 391 2855 752 
Q 3116 1113 3116 1747 
z
" transform="scale(0.015625)"/>
      <path id="DejaVuSans-6c" d="M 603 4863 
L 1178 4863 
L 1178 0 
L 603 0 
L 603 4863 
z
" transform="scale(0.015625)"/>
      <path id="DejaVuSans-6e" d="M 3513 2113 
L 3513 0 
L 2938 0 
L 2938 2094 
Q 2938 2591 2744 2837 
Q 2550 3084 2163 3084 
Q 1697 3084 1428 2787 
Q 1159 2491 1159 1978 
L 1159 0 
L 581 0 
L 581 3500 
L 1159 3500 
L 1159 2956 
Q 1366 3272 1645 3428 
Q 1925 3584 2291 3584 
Q 2894 3584 3203 3211 
Q 3513 2838 3513 2113 
z
" transform="scale(0.015625)"/>
      <path id="DejaVuSans-67" d="M 2906 1791 
Q 2906 2416 2648 2759 
Q 2391 3103 1925 3103 
Q 1463 3103 1205 2759 
Q 947 2416 947 1791 
Q 947 1169 1205 825 
Q 1463 481 1925 481 
Q 2391 481 2648 825 
Q 2906 1169 2906 1791 
z
M 3481 434 
Q 3481 -459 3084 -895 
Q 2688 -1331 1869 -1331 
Q 1566 -1331 1297 -1286 
Q 1028 -1241 775 -1147 
L 775 -588 
Q 1028 -725 1275 -790 
Q 1522 -856 1778 -856 
Q 2344 -856 2625 -561 
Q 2906 -266 2906 331 
L 2906 616 
Q 2728 306 2450 153 
Q 2172 0 1784 0 
Q 1141 0 747 490 
Q 353 981 353 1791 
Q 353 2603 747 3093 
Q 1141 3584 1784 3584 
Q 2172 3584 2450 3431 
Q 2728 3278 2906 2969 
L 2906 3500 
L 3481 3500 
L 3481 434 
z
" transform="scale(0.015625)"/>
     </defs>
     <use xlink:href="#DejaVuSans-63"/>
     <use xlink:href="#DejaVuSans-6f" x="54.980469"/>
     <use xlink:href="#DejaVuSans-75" x="116.162109"/>
     <use xlink:href="#DejaVuSans-70" x="179.541016"/>
     <use xlink:href="#DejaVuSans-6c" x="243.017578"/>
     <use xlink:href="#DejaVuSans-69" x="270.800781"/>
     <use xlink:href="#DejaVuSans-6e" x="298.583984"/>
     <use xlink:href="#DejaVuSans-67" x="361.962891"/>
    </g>
   </g>
   <g id="text_2">
    <!-- Perturbation -->
    <g style="fill: #263238" transform="translate(142.545937 89.190422) scale(0.09 -0.09)">
     <defs>
      <path id="DejaVuSans-50" d="M 1259 4147 
L 1259 2394 
L 2053 2394 
Q 2494 2394 2734 2622 
Q 2975 2850 2975 3272 
Q 2975 3691 2734 3919 
Q 2494 4147 2053 4147 
L 1259 4147 
z
M 628 4666 
L 2053 4666 
Q 2838 4666 3239 4311 
Q 3641 3956 3641 3272 
Q 3641 2581 3239 2228 
Q 2838 1875 2053 1875 
L 1259 1875 
L 1259 0 
L 628 0 
L 628 4666 
z
" transform="scale(0.015625)"/>
      <path id="DejaVuSans-72" d="M 2631 2963 
Q 2534 3019 2420 3045 
Q 2306 3072 2169 3072 
Q 1681 3072 1420 2755 
Q 1159 2438 1159 1844 
L 1159 0 
L 581 0 
L 581 3500 
L 1159 3500 
L 1159 2956 
Q 1341 3275 1631 3429 
Q 1922 3584 2338 3584 
Q 2397 3584 2469 3576 
Q 2541 3569 2628 3553 
L 2631 2963 
z
" transform="scale(0.015625)"/>
      <path id="DejaVuSans-74" d="M 1172 4494 
L 1172 3500 
L 2356 3500 
L 2356 3053 
L 1172 3053 
L 1172 1153 
Q 1172 725 1289 603 
Q 1406 481 1766 481 
L 2356 481 
L 2356 0 
L 1766 0 
Q 1100 0 847 248 
Q 594 497 594 1153 
L 594 3053 
L 172 3053 
L 172 3500 
L 594 3500 
L 594 4494 
L 1172 4494 
z
" transform="scale(0.015625)"/>
      <path id="DejaVuSans-61" d="M 2194 1759 
Q 1497 1759 1228 1600 
Q 959 1441 959 1056 
Q 959 750 1161 570 
Q 1363 391 1709 391 
Q 2188 391 2477 730 
Q 2766 1069 2766 1631 
L 2766 1759 
L 2194 1759 
z
M 3341 1997 
L 3341 0 
L 2766 0 
L 2766 531 
Q 2569 213 2275 61 
Q 1981 -91 1556 -91 
Q 1019 -91 701 211 
Q 384 513 384 1019 
Q 384 1609 779 1909 
Q 1175 2209 1959 2209 
L 2766 2209 
L 2766 2266 
Q 2766 2663 2505 2880 
Q 2244 3097 1772 3097 
Q 1472 3097 1187 3025 
Q 903 2953 641 2809 
L 641 3341 
Q 956 3463 1253 3523 
Q 1550 3584 1831 3584 
Q 2591 3584 2966 3190 
Q 3341 2797 3341 1997 
z
" transform="scale(0.015625)"/>
     </defs>
     <use xlink:href="#DejaVuSans-50"/>
     <use xlink:href="#DejaVuSans-65" x="56.677734"/>
     <use xlink:href="#DejaVuSans-72" x="118.201172"/>
     <use xlink:href="#DejaVuSans-74" x="159.314453"/>
     <use xlink:href="#DejaVuSans-75" x="198.523438"/>
     <use xlink:href="#DejaVuSans-72" x="261.902344"/>
     <use xlink:href="#DejaVuSans-62" x="303.015625"/>
     <use xlink:href="#DejaVuSans-61" x="366.492188"/>
     <use xlink:href="#DejaVuSans-74" x="427.771484"/>
     <use xlink:href="#DejaVuSans-69" x="466.980469"/>
     <use xlink:href="#DejaVuSans-6f" x="494.763672"/>
     <use xlink:href="#DejaVuSans-6e" x="555.945312"/>
    </g>
    <!-- and correction -->
    <g style="fill: #263238" transform="translate(137.908125 99.268453) scale(0.09 -0.09)">
     <defs>
      <path id="DejaVuSans-20" transform="scale(0.015625)"/>
     </defs>
     <use xlink:href="#DejaVuSans-61"/>
     <use xlink:href="#DejaVuSans-6e" x="61.279297"/>
     <use xlink:href="#DejaVuSans-64" x="124.658203"/>
     <use xlink:href="#DejaVuSans-20" x="188.134766"/>
     <use xlink:href="#DejaVuSans-63" x="219.921875"/>
     <use xlink:href="#DejaVuSans-6f" x="274.902344"/>
     <use xlink:href="#DejaVuSans-72" x="336.083984"/>
     <use xlink:href="#DejaVuSans-72" x="375.447266"/>
     <use xlink:href="#DejaVuSans-65" x="414.310547"/>
     <use xlink:href="#DejaVuSans-63" x="475.833984"/>
     <use xlink:href="#DejaVuSans-74" x="530.814453"/>
     <use xlink:href="#DejaVuSans-69" x="570.023438"/>
     <use xlink:href="#DejaVuSans-6f" x="597.806641"/>
     <use xlink:href="#DejaVuSans-6e" x="658.988281"/>
    </g>
   </g>
   <g id="text_3">
    <!-- Dynamic -->
    <g style="fill: #263238" transform="translate(256.589297 89.190422) scale(0.09 -0.09)">
     <defs>
      <path id="DejaVuSans-44" d="M 1259 4147 
L 1259 519 
L 2022 519 
Q 2988 519 3436 956 
Q 3884 1394 3884 2338 
Q 3884 3275 3436 3711 
Q 2988 4147 2022 4147 
L 1259 4147 
z
M 628 4666 
L 1925 4666 
Q 3281 4666 3915 4102 
Q 4550 3538 4550 2338 
Q 4550 1131 3912 565 
Q 3275 0 1925 0 
L 628 0 
L 628 4666 
z
" transform="scale(0.015625)"/>
      <path id="DejaVuSans-79" d="M 2059 -325 
Q 1816 -950 1584 -1140 
Q 1353 -1331 966 -1331 
L 506 -1331 
L 506 -850 
L 844 -850 
Q 1081 -850 1212 -737 
Q 1344 -625 1503 -206 
L 1606 56 
L 191 3500 
L 800 3500 
L 1894 763 
L 2988 3500 
L 3597 3500 
L 2059 -325 
z
" transform="scale(0.015625)"/>
     </defs>
     <use xlink:href="#DejaVuSans-44"/>
     <use xlink:href="#DejaVuSans-79" x="77.001953"/>
     <use xlink:href="#DejaVuSans-6e" x="136.181641"/>
     <use xlink:href="#DejaVuSans-61" x="199.560547"/>
     <use xlink:href="#DejaVuSans-6d" x="260.839844"/>
     <use xlink:href="#DejaVuSans-69" x="358.251953"/>
     <use xlink:href="#DejaVuSans-63" x="386.035156"/>
    </g>
    <!-- homeostasis -->
    <g style="fill: #263238" transform="translate(248.119453 99.268453) scale(0.09 -0.09)">
     <defs>
      <path id="DejaVuSans-68" d="M 3513 2113 
L 3513 0 
L 2938 0 
L 2938 2094 
Q 2938 2591 2744 2837 
Q 2550 3084 2163 3084 
Q 1697 3084 1428 2787 
Q 1159 2491 1159 1978 
L 1159 0 
L 581 0 
L 581 4863 
L 1159 4863 
L 1159 2956 
Q 1366 3272 1645 3428 
Q 1925 3584 2291 3584 
Q 2894 3584 3203 3211 
Q 3513 2838 3513 2113 
z
" transform="scale(0.015625)"/>
      <path id="DejaVuSans-73" d="M 2834 3397 
L 2834 2853 
Q 2591 2978 2328 3040 
Q 2066 3103 1784 3103 
Q 1356 3103 1142 2972 
Q 928 2841 928 2578 
Q 928 2378 1081 2264 
Q 1234 2150 1697 2047 
L 1894 2003 
Q 2506 1872 2764 1633 
Q 3022 1394 3022 966 
Q 3022 478 2636 193 
Q 2250 -91 1575 -91 
Q 1294 -91 989 -36 
Q 684 19 347 128 
L 347 722 
Q 666 556 975 473 
Q 1284 391 1588 391 
Q 1994 391 2212 530 
Q 2431 669 2431 922 
Q 2431 1156 2273 1281 
Q 2116 1406 1581 1522 
L 1381 1569 
Q 847 1681 609 1914 
Q 372 2147 372 2553 
Q 372 3047 722 3315 
Q 1072 3584 1716 3584 
Q 2034 3584 2315 3537 
Q 2597 3491 2834 3397 
z
" transform="scale(0.015625)"/>
     </defs>
     <use xlink:href="#DejaVuSans-68"/>
     <use xlink:href="#DejaVuSans-6f" x="63.378906"/>
     <use xlink:href="#DejaVuSans-6d" x="124.560547"/>
     <use xlink:href="#DejaVuSans-65" x="221.972656"/>
     <use xlink:href="#DejaVuSans-6f" x="283.496094"/>
     <use xlink:href="#DejaVuSans-73" x="344.677734"/>
     <use xlink:href="#DejaVuSans-74" x="396.777344"/>
     <use xlink:href="#DejaVuSans-61" x="435.986328"/>
     <use xlink:href="#DejaVuSans-73" x="497.265625"/>
     <use xlink:href="#DejaVuSans-69" x="549.365234"/>
     <use xlink:href="#DejaVuSans-73" x="577.148438"/>
    </g>
   </g>
   <g id="text_4">
    <!-- Hierarchical -->
    <g style="fill: #263238" transform="translate(355.637109 89.190422) scale(0.09 -0.09)">
     <defs>
      <path id="DejaVuSans-48" d="M 628 4666 
L 1259 4666 
L 1259 2753 
L 3553 2753 
L 3553 4666 
L 4184 4666 
L 4184 0 
L 3553 0 
L 3553 2222 
L 1259 2222 
L 1259 0 
L 628 0 
L 628 4666 
z
" transform="scale(0.015625)"/>
     </defs>
     <use xlink:href="#DejaVuSans-48"/>
     <use xlink:href="#DejaVuSans-69" x="75.195312"/>
     <use xlink:href="#DejaVuSans-65" x="102.978516"/>
     <use xlink:href="#DejaVuSans-72" x="164.501953"/>
     <use xlink:href="#DejaVuSans-61" x="205.615234"/>
     <use xlink:href="#DejaVuSans-72" x="266.894531"/>
     <use xlink:href="#DejaVuSans-63" x="305.757812"/>
     <use xlink:href="#DejaVuSans-68" x="360.738281"/>
     <use xlink:href="#DejaVuSans-69" x="424.117188"/>
     <use xlink:href="#DejaVuSans-63" x="451.900391"/>
     <use xlink:href="#DejaVuSans-61" x="506.880859"/>
     <use xlink:href="#DejaVuSans-6c" x="568.160156"/>
    </g>
    <!-- invariants -->
    <g style="fill: #263238" transform="translate(360.113906 99.268453) scale(0.09 -0.09)">
     <defs>
      <path id="DejaVuSans-76" d="M 191 3500 
L 800 3500 
L 1894 563 
L 2988 3500 
L 3597 3500 
L 2284 0 
L 1503 0 
L 191 3500 
z
" transform="scale(0.015625)"/>
     </defs>
     <use xlink:href="#DejaVuSans-69"/>
     <use xlink:href="#DejaVuSans-6e" x="27.783203"/>
     <use xlink:href="#DejaVuSans-76" x="91.162109"/>
     <use xlink:href="#DejaVuSans-61" x="150.341797"/>
     <use xlink:href="#DejaVuSans-72" x="211.621094"/>
     <use xlink:href="#DejaVuSans-69" x="252.734375"/>
     <use xlink:href="#DejaVuSans-61" x="280.517578"/>
     <use xlink:href="#DejaVuSans-6e" x="341.796875"/>
     <use xlink:href="#DejaVuSans-74" x="405.175781"/>
     <use xlink:href="#DejaVuSans-73" x="444.384766"/>
    </g>
   </g>
   <g id="text_5">
    <!-- Multiscale -->
    <g style="fill: #263238" transform="translate(465.880781 89.190422) scale(0.09 -0.09)">
     <defs>
      <path id="DejaVuSans-4d" d="M 628 4666 
L 1569 4666 
L 2759 1491 
L 3956 4666 
L 4897 4666 
L 4897 0 
L 4281 0 
L 4281 4097 
L 3078 897 
L 2444 897 
L 1241 4097 
L 1241 0 
L 628 0 
L 628 4666 
z
" transform="scale(0.015625)"/>
     </defs>
     <use xlink:href="#DejaVuSans-4d"/>
     <use xlink:href="#DejaVuSans-75" x="86.279297"/>
     <use xlink:href="#DejaVuSans-6c" x="149.658203"/>
     <use xlink:href="#DejaVuSans-74" x="177.441406"/>
     <use xlink:href="#DejaVuSans-69" x="216.650391"/>
     <use xlink:href="#DejaVuSans-73" x="244.433594"/>
     <use xlink:href="#DejaVuSans-63" x="296.533203"/>
     <use xlink:href="#DejaVuSans-61" x="351.513672"/>
     <use xlink:href="#DejaVuSans-6c" x="412.792969"/>
     <use xlink:href="#DejaVuSans-65" x="440.576172"/>
    </g>
    <!-- ACS -->
    <g style="fill: #263238" transform="translate(479.476406 99.268453) scale(0.09 -0.09)">
     <defs>
      <path id="DejaVuSans-41" d="M 2188 4044 
L 1331 1722 
L 3047 1722 
L 2188 4044 
z
M 1831 4666 
L 2547 4666 
L 4325 0 
L 3669 0 
L 3244 1197 
L 1141 1197 
L 716 0 
L 50 0 
L 1831 4666 
z
" transform="scale(0.015625)"/>
      <path id="DejaVuSans-43" d="M 4122 4306 
L 4122 3641 
Q 3803 3938 3442 4084 
Q 3081 4231 2675 4231 
Q 1875 4231 1450 3742 
Q 1025 3253 1025 2328 
Q 1025 1406 1450 917 
Q 1875 428 2675 428 
Q 3081 428 3442 575 
Q 3803 722 4122 1019 
L 4122 359 
Q 3791 134 3420 21 
Q 3050 -91 2638 -91 
Q 1578 -91 968 557 
Q 359 1206 359 2328 
Q 359 3453 968 4101 
Q 1578 4750 2638 4750 
Q 3056 4750 3426 4639 
Q 3797 4528 4122 4306 
z
" transform="scale(0.015625)"/>
      <path id="DejaVuSans-53" d="M 3425 4513 
L 3425 3897 
Q 3066 4069 2747 4153 
Q 2428 4238 2131 4238 
Q 1616 4238 1336 4038 
Q 1056 3838 1056 3469 
Q 1056 3159 1242 3001 
Q 1428 2844 1947 2747 
L 2328 2669 
Q 3034 2534 3370 2195 
Q 3706 1856 3706 1288 
Q 3706 609 3251 259 
Q 2797 -91 1919 -91 
Q 1588 -91 1214 -16 
Q 841 59 441 206 
L 441 856 
Q 825 641 1194 531 
Q 1563 422 1919 422 
Q 2459 422 2753 634 
Q 3047 847 3047 1241 
Q 3047 1584 2836 1778 
Q 2625 1972 2144 2069 
L 1759 2144 
Q 1053 2284 737 2584 
Q 422 2884 422 3419 
Q 422 4038 858 4394 
Q 1294 4750 2059 4750 
Q 2388 4750 2728 4690 
Q 3069 4631 3425 4513 
z
" transform="scale(0.015625)"/>
     </defs>
     <use xlink:href="#DejaVuSans-41"/>
     <use xlink:href="#DejaVuSans-43" x="66.658203"/>
     <use xlink:href="#DejaVuSans-53" x="136.482422"/>
    </g>
   </g>
   <g id="text_6">
    <!-- EM -->
    <g style="fill: #263238" transform="translate(587.768906 89.190422) scale(0.09 -0.09)">
     <use xlink:href="#DejaVuSans-45"/>
     <use xlink:href="#DejaVuSans-4d" x="63.183594"/>
    </g>
    <!-- manifestation -->
    <g style="fill: #263238" transform="translate(563.413359 99.268453) scale(0.09 -0.09)">
     <defs>
      <path id="DejaVuSans-66" d="M 2375 4863 
L 2375 4384 
L 1825 4384 
Q 1516 4384 1395 4259 
Q 1275 4134 1275 3809 
L 1275 3500 
L 2222 3500 
L 2222 3053 
L 1275 3053 
L 1275 0 
L 697 0 
L 697 3053 
L 147 3053 
L 147 3500 
L 697 3500 
L 697 3744 
Q 697 4328 969 4595 
Q 1241 4863 1831 4863 
L 2375 4863 
z
" transform="scale(0.015625)"/>
     </defs>
     <use xlink:href="#DejaVuSans-6d"/>
     <use xlink:href="#DejaVuSans-61" x="97.412109"/>
     <use xlink:href="#DejaVuSans-6e" x="158.691406"/>
     <use xlink:href="#DejaVuSans-69" x="222.070312"/>
     <use xlink:href="#DejaVuSans-66" x="249.853516"/>
     <use xlink:href="#DejaVuSans-65" x="285.058594"/>
     <use xlink:href="#DejaVuSans-73" x="346.582031"/>
     <use xlink:href="#DejaVuSans-74" x="398.681641"/>
     <use xlink:href="#DejaVuSans-61" x="437.890625"/>
     <use xlink:href="#DejaVuSans-74" x="499.169922"/>
     <use xlink:href="#DejaVuSans-69" x="538.378906"/>
     <use xlink:href="#DejaVuSans-6f" x="566.162109"/>
     <use xlink:href="#DejaVuSans-6e" x="627.34375"/>
    </g>
   </g>
   <g id="text_7">
    <!-- Restricted identity hypothesis: -->
    <g style="fill: #263238" transform="translate(273.239297 190.368422) scale(0.09 -0.09)">
     <defs>
      <path id="DejaVuSans-52" d="M 2841 2188 
Q 3044 2119 3236 1894 
Q 3428 1669 3622 1275 
L 4263 0 
L 3584 0 
L 2988 1197 
Q 2756 1666 2539 1819 
Q 2322 1972 1947 1972 
L 1259 1972 
L 1259 0 
L 628 0 
L 628 4666 
L 2053 4666 
Q 2853 4666 3247 4331 
Q 3641 3997 3641 3322 
Q 3641 2881 3436 2590 
Q 3231 2300 2841 2188 
z
M 1259 4147 
L 1259 2491 
L 2053 2491 
Q 2509 2491 2742 2702 
Q 2975 2913 2975 3322 
Q 2975 3731 2742 3939 
Q 2509 4147 2053 4147 
L 1259 4147 
z
" transform="scale(0.015625)"/>
      <path id="DejaVuSans-3a" d="M 750 794 
L 1409 794 
L 1409 0 
L 750 0 
L 750 794 
z
M 750 3309 
L 1409 3309 
L 1409 2516 
L 750 2516 
L 750 3309 
z
" transform="scale(0.015625)"/>
     </defs>
     <use xlink:href="#DejaVuSans-52"/>
     <use xlink:href="#DejaVuSans-65" x="64.982422"/>
     <use xlink:href="#DejaVuSans-73" x="126.505859"/>
     <use xlink:href="#DejaVuSans-74" x="178.605469"/>
     <use xlink:href="#DejaVuSans-72" x="217.814453"/>
     <use xlink:href="#DejaVuSans-69" x="258.927734"/>
     <use xlink:href="#DejaVuSans-63" x="286.710938"/>
     <use xlink:href="#DejaVuSans-74" x="341.691406"/>
     <use xlink:href="#DejaVuSans-65" x="380.900391"/>
     <use xlink:href="#DejaVuSans-64" x="442.423828"/>
     <use xlink:href="#DejaVuSans-20" x="505.900391"/>
     <use xlink:href="#DejaVuSans-69" x="537.6875"/>
     <use xlink:href="#DejaVuSans-64" x="565.470703"/>
     <use xlink:href="#DejaVuSans-65" x="628.947266"/>
     <use xlink:href="#DejaVuSans-6e" x="690.470703"/>
     <use xlink:href="#DejaVuSans-74" x="753.849609"/>
     <use xlink:href="#DejaVuSans-69" x="793.058594"/>
     <use xlink:href="#DejaVuSans-74" x="820.841797"/>
     <use xlink:href="#DejaVuSans-79" x="860.050781"/>
     <use xlink:href="#DejaVuSans-20" x="919.230469"/>
     <use xlink:href="#DejaVuSans-68" x="951.017578"/>
     <use xlink:href="#DejaVuSans-79" x="1014.396484"/>
     <use xlink:href="#DejaVuSans-70" x="1073.576172"/>
     <use xlink:href="#DejaVuSans-6f" x="1137.052734"/>
     <use xlink:href="#DejaVuSans-74" x="1198.234375"/>
     <use xlink:href="#DejaVuSans-68" x="1237.443359"/>
     <use xlink:href="#DejaVuSans-65" x="1300.822266"/>
     <use xlink:href="#DejaVuSans-73" x="1362.345703"/>
     <use xlink:href="#DejaVuSans-69" x="1414.445312"/>
     <use xlink:href="#DejaVuSans-73" x="1442.228516"/>
     <use xlink:href="#DejaVuSans-3a" x="1494.328125"/>
    </g>
    <!-- intrinsic existence = subjective aspect -->
    <g style="fill: #263238" transform="translate(255.086719 200.446453) scale(0.09 -0.09)">
     <defs>
      <path id="DejaVuSans-78" d="M 3513 3500 
L 2247 1797 
L 3578 0 
L 2900 0 
L 1881 1375 
L 863 0 
L 184 0 
L 1544 1831 
L 300 3500 
L 978 3500 
L 1906 2253 
L 2834 3500 
L 3513 3500 
z
" transform="scale(0.015625)"/>
      <path id="DejaVuSans-3d" d="M 678 2906 
L 4684 2906 
L 4684 2381 
L 678 2381 
L 678 2906 
z
M 678 1631 
L 4684 1631 
L 4684 1100 
L 678 1100 
L 678 1631 
z
" transform="scale(0.015625)"/>
      <path id="DejaVuSans-6a" d="M 603 3500 
L 1178 3500 
L 1178 -63 
Q 1178 -731 923 -1031 
Q 669 -1331 103 -1331 
L -116 -1331 
L -116 -844 
L 38 -844 
Q 366 -844 484 -692 
Q 603 -541 603 -63 
L 603 3500 
z
M 603 4863 
L 1178 4863 
L 1178 4134 
L 603 4134 
L 603 4863 
z
" transform="scale(0.015625)"/>
     </defs>
     <use xlink:href="#DejaVuSans-69"/>
     <use xlink:href="#DejaVuSans-6e" x="27.783203"/>
     <use xlink:href="#DejaVuSans-74" x="91.162109"/>
     <use xlink:href="#DejaVuSans-72" x="130.371094"/>
     <use xlink:href="#DejaVuSans-69" x="171.484375"/>
     <use xlink:href="#DejaVuSans-6e" x="199.267578"/>
     <use xlink:href="#DejaVuSans-73" x="262.646484"/>
     <use xlink:href="#DejaVuSans-69" x="314.746094"/>
     <use xlink:href="#DejaVuSans-63" x="342.529297"/>
     <use xlink:href="#DejaVuSans-20" x="397.509766"/>
     <use xlink:href="#DejaVuSans-65" x="429.296875"/>
     <use xlink:href="#DejaVuSans-78" x="489.070312"/>
     <use xlink:href="#DejaVuSans-69" x="548.25"/>
     <use xlink:href="#DejaVuSans-73" x="576.033203"/>
     <use xlink:href="#DejaVuSans-74" x="628.132812"/>
     <use xlink:href="#DejaVuSans-65" x="667.341797"/>
     <use xlink:href="#DejaVuSans-6e" x="728.865234"/>
     <use xlink:href="#DejaVuSans-63" x="792.244141"/>
     <use xlink:href="#DejaVuSans-65" x="847.224609"/>
     <use xlink:href="#DejaVuSans-20" x="908.748047"/>
     <use xlink:href="#DejaVuSans-3d" x="940.535156"/>
     <use xlink:href="#DejaVuSans-20" x="1024.324219"/>
     <use xlink:href="#DejaVuSans-73" x="1056.111328"/>
     <use xlink:href="#DejaVuSans-75" x="1108.210938"/>
     <use xlink:href="#DejaVuSans-62" x="1171.589844"/>
     <use xlink:href="#DejaVuSans-6a" x="1235.066406"/>
     <use xlink:href="#DejaVuSans-65" x="1262.849609"/>
     <use xlink:href="#DejaVuSans-63" x="1324.373047"/>
     <use xlink:href="#DejaVuSans-74" x="1379.353516"/>
     <use xlink:href="#DejaVuSans-69" x="1418.5625"/>
     <use xlink:href="#DejaVuSans-76" x="1446.345703"/>
     <use xlink:href="#DejaVuSans-65" x="1505.525391"/>
     <use xlink:href="#DejaVuSans-20" x="1567.048828"/>
     <use xlink:href="#DejaVuSans-61" x="1598.835938"/>
     <use xlink:href="#DejaVuSans-73" x="1660.115234"/>
     <use xlink:href="#DejaVuSans-70" x="1712.214844"/>
     <use xlink:href="#DejaVuSans-65" x="1775.691406"/>
     <use xlink:href="#DejaVuSans-63" x="1837.214844"/>
     <use xlink:href="#DejaVuSans-74" x="1892.195312"/>
    </g>
   </g>
   <g id="text_8">
    <!-- MECHANISTIC PROPOSAL -->
    <g style="fill: #59a14f" transform="translate(103.821094 37.692) scale(0.1 -0.1)">
     <defs>
      <path id="DejaVuSans-Bold-4d" d="M 588 4666 
L 2119 4666 
L 3181 2169 
L 4250 4666 
L 5778 4666 
L 5778 0 
L 4641 0 
L 4641 3413 
L 3566 897 
L 2803 897 
L 1728 3413 
L 1728 0 
L 588 0 
L 588 4666 
z
" transform="scale(0.015625)"/>
      <path id="DejaVuSans-Bold-45" d="M 588 4666 
L 3834 4666 
L 3834 3756 
L 1791 3756 
L 1791 2888 
L 3713 2888 
L 3713 1978 
L 1791 1978 
L 1791 909 
L 3903 909 
L 3903 0 
L 588 0 
L 588 4666 
z
" transform="scale(0.015625)"/>
      <path id="DejaVuSans-Bold-43" d="M 4288 256 
Q 3956 84 3597 -3 
Q 3238 -91 2847 -91 
Q 1681 -91 1000 561 
Q 319 1213 319 2328 
Q 319 3447 1000 4098 
Q 1681 4750 2847 4750 
Q 3238 4750 3597 4662 
Q 3956 4575 4288 4403 
L 4288 3438 
Q 3953 3666 3628 3772 
Q 3303 3878 2944 3878 
Q 2300 3878 1931 3465 
Q 1563 3053 1563 2328 
Q 1563 1606 1931 1193 
Q 2300 781 2944 781 
Q 3303 781 3628 887 
Q 3953 994 4288 1222 
L 4288 256 
z
" transform="scale(0.015625)"/>
      <path id="DejaVuSans-Bold-48" d="M 588 4666 
L 1791 4666 
L 1791 2888 
L 3566 2888 
L 3566 4666 
L 4769 4666 
L 4769 0 
L 3566 0 
L 3566 1978 
L 1791 1978 
L 1791 0 
L 588 0 
L 588 4666 
z
" transform="scale(0.015625)"/>
      <path id="DejaVuSans-Bold-41" d="M 3419 850 
L 1538 850 
L 1241 0 
L 31 0 
L 1759 4666 
L 3194 4666 
L 4922 0 
L 3713 0 
L 3419 850 
z
M 1838 1716 
L 3116 1716 
L 2478 3572 
L 1838 1716 
z
" transform="scale(0.015625)"/>
      <path id="DejaVuSans-Bold-4e" d="M 588 4666 
L 1931 4666 
L 3628 1466 
L 3628 4666 
L 4769 4666 
L 4769 0 
L 3425 0 
L 1728 3200 
L 1728 0 
L 588 0 
L 588 4666 
z
" transform="scale(0.015625)"/>
      <path id="DejaVuSans-Bold-49" d="M 588 4666 
L 1791 4666 
L 1791 0 
L 588 0 
L 588 4666 
z
" transform="scale(0.015625)"/>
      <path id="DejaVuSans-Bold-53" d="M 3834 4519 
L 3834 3531 
Q 3450 3703 3084 3790 
Q 2719 3878 2394 3878 
Q 1963 3878 1756 3759 
Q 1550 3641 1550 3391 
Q 1550 3203 1689 3098 
Q 1828 2994 2194 2919 
L 2706 2816 
Q 3484 2659 3812 2340 
Q 4141 2022 4141 1434 
Q 4141 663 3683 286 
Q 3225 -91 2284 -91 
Q 1841 -91 1394 -6 
Q 947 78 500 244 
L 500 1259 
Q 947 1022 1364 901 
Q 1781 781 2169 781 
Q 2563 781 2772 912 
Q 2981 1044 2981 1288 
Q 2981 1506 2839 1625 
Q 2697 1744 2272 1838 
L 1806 1941 
Q 1106 2091 782 2419 
Q 459 2747 459 3303 
Q 459 4000 909 4375 
Q 1359 4750 2203 4750 
Q 2588 4750 2994 4692 
Q 3400 4634 3834 4519 
z
" transform="scale(0.015625)"/>
      <path id="DejaVuSans-Bold-54" d="M 31 4666 
L 4331 4666 
L 4331 3756 
L 2784 3756 
L 2784 0 
L 1581 0 
L 1581 3756 
L 31 3756 
L 31 4666 
z
" transform="scale(0.015625)"/>
      <path id="DejaVuSans-Bold-20" transform="scale(0.015625)"/>
      <path id="DejaVuSans-Bold-50" d="M 588 4666 
L 2584 4666 
Q 3475 4666 3951 4270 
Q 4428 3875 4428 3144 
Q 4428 2409 3951 2014 
Q 3475 1619 2584 1619 
L 1791 1619 
L 1791 0 
L 588 0 
L 588 4666 
z
M 1791 3794 
L 1791 2491 
L 2456 2491 
Q 2806 2491 2997 2661 
Q 3188 2831 3188 3144 
Q 3188 3456 2997 3625 
Q 2806 3794 2456 3794 
L 1791 3794 
z
" transform="scale(0.015625)"/>
      <path id="DejaVuSans-Bold-52" d="M 2297 2597 
Q 2675 2597 2839 2737 
Q 3003 2878 3003 3200 
Q 3003 3519 2839 3656 
Q 2675 3794 2297 3794 
L 1791 3794 
L 1791 2597 
L 2297 2597 
z
M 1791 1766 
L 1791 0 
L 588 0 
L 588 4666 
L 2425 4666 
Q 3347 4666 3776 4356 
Q 4206 4047 4206 3378 
Q 4206 2916 3982 2619 
Q 3759 2322 3309 2181 
Q 3556 2125 3751 1926 
Q 3947 1728 4147 1325 
L 4800 0 
L 3519 0 
L 2950 1159 
Q 2778 1509 2601 1637 
Q 2425 1766 2131 1766 
L 1791 1766 
z
" transform="scale(0.015625)"/>
      <path id="DejaVuSans-Bold-4f" d="M 2719 3878 
Q 2169 3878 1866 3472 
Q 1563 3066 1563 2328 
Q 1563 1594 1866 1187 
Q 2169 781 2719 781 
Q 3272 781 3575 1187 
Q 3878 1594 3878 2328 
Q 3878 3066 3575 3472 
Q 3272 3878 2719 3878 
z
M 2719 4750 
Q 3844 4750 4481 4106 
Q 5119 3463 5119 2328 
Q 5119 1197 4481 553 
Q 3844 -91 2719 -91 
Q 1597 -91 958 553 
Q 319 1197 319 2328 
Q 319 3463 958 4106 
Q 1597 4750 2719 4750 
z
" transform="scale(0.015625)"/>
      <path id="DejaVuSans-Bold-4c" d="M 588 4666 
L 1791 4666 
L 1791 909 
L 3903 909 
L 3903 0 
L 588 0 
L 588 4666 
z
" transform="scale(0.015625)"/>
     </defs>
     <use xlink:href="#DejaVuSans-Bold-4d"/>
     <use xlink:href="#DejaVuSans-Bold-45" x="99.511719"/>
     <use xlink:href="#DejaVuSans-Bold-43" x="167.822266"/>
     <use xlink:href="#DejaVuSans-Bold-48" x="241.210938"/>
     <use xlink:href="#DejaVuSans-Bold-41" x="324.902344"/>
     <use xlink:href="#DejaVuSans-Bold-4e" x="402.294922"/>
     <use xlink:href="#DejaVuSans-Bold-49" x="485.986328"/>
     <use xlink:href="#DejaVuSans-Bold-53" x="523.193359"/>
     <use xlink:href="#DejaVuSans-Bold-54" x="595.214844"/>
     <use xlink:href="#DejaVuSans-Bold-49" x="663.427734"/>
     <use xlink:href="#DejaVuSans-Bold-43" x="700.634766"/>
     <use xlink:href="#DejaVuSans-Bold-20" x="774.023438"/>
     <use xlink:href="#DejaVuSans-Bold-50" x="808.837891"/>
     <use xlink:href="#DejaVuSans-Bold-52" x="882.128906"/>
     <use xlink:href="#DejaVuSans-Bold-4f" x="959.130859"/>
     <use xlink:href="#DejaVuSans-Bold-50" x="1044.140625"/>
     <use xlink:href="#DejaVuSans-Bold-4f" x="1117.431641"/>
     <use xlink:href="#DejaVuSans-Bold-53" x="1202.441406"/>
     <use xlink:href="#DejaVuSans-Bold-41" x="1274.462891"/>
     <use xlink:href="#DejaVuSans-Bold-4c" x="1351.855469"/>
    </g>
   </g>
   <g id="text_9">
    <!-- EMPIRICAL SIGNATURES -->
    <g style="fill: #4c78a8" transform="translate(424.999062 37.692) scale(0.1 -0.1)">
     <defs>
      <path id="DejaVuSans-Bold-47" d="M 4781 347 
Q 4331 128 3847 18 
Q 3363 -91 2847 -91 
Q 1681 -91 1000 561 
Q 319 1213 319 2328 
Q 319 3456 1012 4103 
Q 1706 4750 2913 4750 
Q 3378 4750 3804 4662 
Q 4231 4575 4609 4403 
L 4609 3438 
Q 4219 3659 3833 3768 
Q 3447 3878 3059 3878 
Q 2341 3878 1952 3476 
Q 1563 3075 1563 2328 
Q 1563 1588 1938 1184 
Q 2313 781 3003 781 
Q 3191 781 3352 804 
Q 3513 828 3641 878 
L 3641 1784 
L 2906 1784 
L 2906 2591 
L 4781 2591 
L 4781 347 
z
" transform="scale(0.015625)"/>
      <path id="DejaVuSans-Bold-55" d="M 588 4666 
L 1791 4666 
L 1791 1869 
Q 1791 1291 1980 1042 
Q 2169 794 2597 794 
Q 3028 794 3217 1042 
Q 3406 1291 3406 1869 
L 3406 4666 
L 4609 4666 
L 4609 1869 
Q 4609 878 4112 393 
Q 3616 -91 2597 -91 
Q 1581 -91 1084 393 
Q 588 878 588 1869 
L 588 4666 
z
" transform="scale(0.015625)"/>
     </defs>
     <use xlink:href="#DejaVuSans-Bold-45"/>
     <use xlink:href="#DejaVuSans-Bold-4d" x="68.310547"/>
     <use xlink:href="#DejaVuSans-Bold-50" x="167.822266"/>
     <use xlink:href="#DejaVuSans-Bold-49" x="241.113281"/>
     <use xlink:href="#DejaVuSans-Bold-52" x="278.320312"/>
     <use xlink:href="#DejaVuSans-Bold-49" x="355.322266"/>
     <use xlink:href="#DejaVuSans-Bold-43" x="392.529297"/>
     <use xlink:href="#DejaVuSans-Bold-41" x="465.917969"/>
     <use xlink:href="#DejaVuSans-Bold-4c" x="543.310547"/>
     <use xlink:href="#DejaVuSans-Bold-20" x="607.03125"/>
     <use xlink:href="#DejaVuSans-Bold-53" x="641.845703"/>
     <use xlink:href="#DejaVuSans-Bold-49" x="713.867188"/>
     <use xlink:href="#DejaVuSans-Bold-47" x="751.074219"/>
     <use xlink:href="#DejaVuSans-Bold-4e" x="833.154297"/>
     <use xlink:href="#DejaVuSans-Bold-41" x="916.845703"/>
     <use xlink:href="#DejaVuSans-Bold-54" x="986.488281"/>
     <use xlink:href="#DejaVuSans-Bold-55" x="1054.701172"/>
     <use xlink:href="#DejaVuSans-Bold-52" x="1135.902344"/>
     <use xlink:href="#DejaVuSans-Bold-45" x="1212.904297"/>
     <use xlink:href="#DejaVuSans-Bold-53" x="1281.214844"/>
    </g>
   </g>
   <g id="text_10">
    <!-- ONTOLOGICAL PROPOSAL -->
    <g style="fill: #8f63a8" transform="translate(269.880469 234.504) scale(0.1 -0.1)">
     <use xlink:href="#DejaVuSans-Bold-4f"/>
     <use xlink:href="#DejaVuSans-Bold-4e" x="85.009766"/>
     <use xlink:href="#DejaVuSans-Bold-54" x="168.701172"/>
     <use xlink:href="#DejaVuSans-Bold-4f" x="236.914062"/>
     <use xlink:href="#DejaVuSans-Bold-4c" x="321.923828"/>
     <use xlink:href="#DejaVuSans-Bold-4f" x="382.019531"/>
     <use xlink:href="#DejaVuSans-Bold-47" x="467.029297"/>
     <use xlink:href="#DejaVuSans-Bold-49" x="549.109375"/>
     <use xlink:href="#DejaVuSans-Bold-43" x="586.316406"/>
     <use xlink:href="#DejaVuSans-Bold-41" x="659.705078"/>
     <use xlink:href="#DejaVuSans-Bold-4c" x="737.097656"/>
     <use xlink:href="#DejaVuSans-Bold-20" x="800.818359"/>
     <use xlink:href="#DejaVuSans-Bold-50" x="835.632812"/>
     <use xlink:href="#DejaVuSans-Bold-52" x="908.923828"/>
     <use xlink:href="#DejaVuSans-Bold-4f" x="985.925781"/>
     <use xlink:href="#DejaVuSans-Bold-50" x="1070.935547"/>
     <use xlink:href="#DejaVuSans-Bold-4f" x="1144.226562"/>
     <use xlink:href="#DejaVuSans-Bold-53" x="1229.236328"/>
     <use xlink:href="#DejaVuSans-Bold-41" x="1301.257812"/>
     <use xlink:href="#DejaVuSans-Bold-4c" x="1378.650391"/>
    </g>
   </g>
  </g>
 </g>
 <defs>
  <clipPath id="p6798988283">
   <rect x="7.2" y="7.2" width="669.6" height="232.848"/>
  </clipPath>
 </defs>
</svg>
